<svg width="16" height="17" viewBox="0 0 16 17" fill="none" xmlns="http://www.w3.org/2000/svg">
    <path
        d="M15.6984 8.73264C15.6984 9.46285 14.9408 10.0853 13.5017 10.5362C13.4257 10.5589 13.3498 10.5832 13.2709 10.606C13.2694 10.606 13.2679 10.606 13.2648 10.606C12.9263 10.7032 12.6394 10.9294 12.4663 11.236C12.4116 11.3332 12.354 11.4273 12.2932 11.5214C11.3808 12.9166 9.80503 13.8396 8.01669 13.8396C6.55778 13.8396 5.23854 13.2247 4.30793 12.241C4.13638 12.0588 3.73256 11.5852 3.36214 11.4136C3.75533 11.5412 4.92428 11.7507 5.83667 11.8053C5.24005 11.781 5.20665 11.9708 5.44804 12.1621C6.15092 12.7177 7.0542 13.0198 8.01821 13.0198C9.22359 13.0198 10.3151 12.5188 11.0939 11.7142C11.3383 11.4592 11.1319 11.0402 10.7827 11.0812H10.7675C9.90219 11.1829 8.97159 11.2345 8.01517 11.2345C7.05876 11.2345 6.12815 11.1829 5.26283 11.0827C4.95009 11.0462 4.64495 11.0053 4.35195 10.9567C3.99216 10.8975 3.64907 10.8292 3.32419 10.7533C3.12987 10.7077 2.94162 10.6576 2.76097 10.606C2.68202 10.5832 2.60612 10.5604 2.53021 10.5362C1.09104 10.0853 0.333496 9.46285 0.333496 8.73264C0.333496 8.00242 1.09104 7.37999 2.53021 6.92911C1.09711 7.5485 0.998432 8.3774 1.1548 8.73264C1.28839 9.03322 1.54192 9.2913 2.30401 9.58885C2.51503 9.67083 2.75641 9.75281 3.02512 9.82872C3.29838 9.90766 3.602 9.98205 3.93599 10.0488C4.17433 10.0974 4.42938 10.143 4.69809 10.1824C5.62717 10.3221 6.73388 10.4102 8.01517 10.4102C9.29646 10.4102 10.4032 10.3221 11.3323 10.1824C11.601 10.143 11.856 10.0974 12.0944 10.0488C12.4268 9.98205 12.7304 9.90766 13.0052 9.82872C13.2739 9.75129 13.5153 9.67083 13.7263 9.58885C14.4884 9.2913 14.7875 8.95276 14.8755 8.73264C15.0562 8.28631 14.8801 7.60012 13.5001 6.92911C14.9393 7.37999 15.6969 8.0009 15.6969 8.73264H15.6984Z"
        fill="white" />
    <path
        d="M13.6307 8.91618C13.4454 8.99968 13.3878 9.0179 13.1115 9.09836C12.8655 9.16971 12.4754 9.27901 12.2598 9.32911C12.1414 9.35644 11.7983 9.42779 11.7543 9.4369C12.0731 9.33366 12.2856 9.15149 12.3008 8.73249C12.3084 8.53058 12.2871 8.33019 12.2598 8.13587C12.2264 7.88842 12.1687 7.64704 12.0943 7.41476C11.9911 7.09444 11.8499 6.79082 11.6784 6.50845C11.5114 6.23367 11.3155 5.98014 11.0924 5.75091C10.3136 4.9463 9.22204 4.44533 8.01513 4.44533C6.80823 4.44533 5.7167 4.9463 4.93791 5.75091C4.71474 5.98014 4.51891 6.23367 4.35191 6.50845C4.17885 6.79082 4.03918 7.09444 3.93595 7.41476C3.86004 7.64704 3.80387 7.8869 3.77047 8.13587C3.74315 8.33019 3.72948 8.53058 3.72948 8.73249C3.72948 8.9344 3.74315 9.13327 3.77047 9.32911C3.44711 9.25624 3.16323 9.1773 2.91881 9.09836C2.9097 8.97691 2.90515 8.85546 2.90515 8.73249C2.90515 8.60952 2.9097 8.48655 2.91881 8.36662C2.93703 8.11765 2.97194 7.87324 3.02508 7.63641C3.09491 7.31609 3.19511 7.00791 3.32263 6.71339C3.43801 6.44469 3.57767 6.18661 3.73708 5.94371C4.65098 4.54856 6.22679 3.62402 8.01665 3.62402C9.80651 3.62402 11.3808 4.54856 12.2932 5.94371C12.4526 6.18661 12.5923 6.44469 12.7076 6.71339C12.8352 7.00791 12.9354 7.31609 13.0052 7.63641C13.0583 7.87475 13.0948 8.11765 13.1115 8.36662C13.1494 8.93288 13.3392 8.98298 13.6307 8.91618Z"
        fill="white" />
    <path
        d="M2.40143 8.91618C2.58664 8.99968 2.64433 9.0179 2.92062 9.09836C3.16656 9.16971 3.55671 9.27901 3.77229 9.32911C3.8907 9.35644 4.23379 9.42779 4.27782 9.4369C3.95902 9.33366 3.74648 9.15149 3.7313 8.73249C3.72371 8.53058 3.74496 8.33019 3.77229 8.13587C3.80569 7.88842 3.86337 7.64704 3.93776 7.41476C4.04099 7.09444 4.18218 6.79082 4.35373 6.50845C4.52072 6.23367 4.71656 5.98014 4.93972 5.75091C5.71851 4.9463 6.81004 4.44533 8.01694 4.44533C9.22385 4.44533 10.3154 4.9463 11.0942 5.75091C11.3173 5.98014 11.5132 6.23367 11.6802 6.50845C11.8532 6.79082 11.9929 7.09444 12.0961 7.41476C12.172 7.64704 12.2282 7.8869 12.2616 8.13587C12.2889 8.33019 12.3026 8.53058 12.3026 8.73249C12.3026 8.9344 12.2889 9.13327 12.2616 9.32911C12.585 9.25624 12.8688 9.1773 13.1133 9.09836C13.1224 8.97691 13.1269 8.85546 13.1269 8.73249C13.1269 8.60952 13.1224 8.48655 13.1133 8.36662C13.095 8.11765 13.0601 7.87324 13.007 7.63641C12.9372 7.31609 12.837 7.00791 12.7094 6.71339C12.5941 6.44469 12.4544 6.18661 12.295 5.94371C11.3811 4.54856 9.80499 3.62402 8.01665 3.62402C6.22831 3.62402 4.6528 4.54856 3.74041 5.94371C3.581 6.18661 3.44134 6.44469 3.32596 6.71339C3.19844 7.00791 3.09824 7.31609 3.02841 7.63641C2.97528 7.87475 2.93884 8.11765 2.92214 8.36662C2.88419 8.93288 2.69442 8.98298 2.40294 8.91618H2.40143Z"
        fill="white" />
</svg>