<svg xmlns="http://www.w3.org/2000/svg">
    <defs>
        <!-- 18 -->
        <symbol id="icon-arrow-right" viewBox="0 0 20 10" fill="none" xmlns="http://www.w3.org/2000/svg">
            <path d="M0 5H18.5M18.5 5L15 1M18.5 5L15 9.5" stroke="currentColor" />
        </symbol>
        <!-- 20x20 -->
        <symbol id="icon-cross_20" xmlns="http://www.w3.org/2000/svg" viewBox="0 0 20 20" fill="none">
            <path stroke="currentColor" stroke-linecap="round" d="m3 3.376 7 7m7 7-7-7m7-7-7 7m-7 7 7-7" />
        </symbol>
        <symbol id="icon-star_20" viewBox="0 0 20 21" fill="none" xmlns="http://www.w3.org/2000/svg">
            <path
                d="M9.87897 1.62402C9.87897 6.52775 5.90373 10.503 1 10.503C5.90373 10.503 9.87897 14.4782 9.87897 19.382C9.87897 14.4782 13.8542 10.503 18.7579 10.503C13.8542 10.503 9.87897 6.52775 9.87897 1.62402Z"
                fill="currentColor" />
        </symbol>
        <!-- 24x24 -->
        <symbol id="icon-hamburger_24" xmlns="http://www.w3.org/2000/svg" viewBox="0 0 24 24" fill="none">
            <path stroke="currentColor" stroke-linecap="round" stroke-linejoin="round" d="M5 16h15M5 8h15" />
        </symbol>
        <symbol id="icon-coinbase_24" viewBox="0 0 24 25" fill="none" xmlns="http://www.w3.org/2000/svg">
            <g clip-path="url(#clip0_214_2755)">
                <path
                    d="M12 24.624C18.6274 24.624 24 19.2514 24 12.624C24 5.99661 18.6274 0.624023 12 0.624023C5.37258 0.624023 0 5.99661 0 12.624C0 19.2514 5.37258 24.624 12 24.624Z"
                    fill="#0052FF" />
                <path fill-rule="evenodd" clip-rule="evenodd"
                    d="M3.5625 12.624C3.5625 17.2839 7.34009 21.0615 12 21.0615C16.6599 21.0615 20.4375 17.2839 20.4375 12.624C20.4375 7.96411 16.6599 4.18652 12 4.18652C7.34009 4.18652 3.5625 7.96411 3.5625 12.624ZM9.84375 9.90527C9.53309 9.90527 9.28125 10.1571 9.28125 10.4678V14.7803C9.28125 15.0909 9.53309 15.3428 9.84375 15.3428H14.1562C14.4669 15.3428 14.7188 15.0909 14.7188 14.7803V10.4678C14.7188 10.1571 14.4669 9.90527 14.1562 9.90527H9.84375Z"
                    fill="white" />
            </g>
            <defs>
                <clipPath id="clip0_214_2755">
                    <rect width="24" height="24" fill="white" transform="translate(0 0.624023)" />
                </clipPath>
            </defs>
        </symbol>
        <symbol id="icon-metamask_24" viewBox="0 0 24 25" fill="none" xmlns="http://www.w3.org/2000/svg">
            <g clip-path="url(#clip0_214_2750)">
                <path
                    d="M12 24.624C18.6274 24.624 24 19.2514 24 12.624C24 5.99661 18.6274 0.624023 12 0.624023C5.37258 0.624023 0 5.99661 0 12.624C0 19.2514 5.37258 24.624 12 24.624Z"
                    fill="white" />
                <path d="M18.7533 5.68652L12.9004 10.0336L13.9827 7.46888L18.7533 5.68652Z" fill="#E2761B"
                    stroke="#E2761B" stroke-linecap="round" stroke-linejoin="round" />
                <path d="M5.24023 5.68652L11.0461 10.0748L10.0167 7.46888L5.24023 5.68652Z" fill="#E4761B"
                    stroke="#E4761B" stroke-linecap="round" stroke-linejoin="round" />
                <path d="M16.6467 15.7627L15.0879 18.1509L18.4232 19.0686L19.382 15.8156L16.6467 15.7627Z"
                    fill="#E4761B" stroke="#E4761B" stroke-linecap="round" stroke-linejoin="round" />
                <path d="M4.62305 15.8156L5.57599 19.0686L8.91128 18.1509L7.35246 15.7627L4.62305 15.8156Z"
                    fill="#E4761B" stroke="#E4761B" stroke-linecap="round" stroke-linejoin="round" />
                <path d="M8.72336 11.7276L7.79395 13.1334L11.1057 13.2805L10.9881 9.72168L8.72336 11.7276Z"
                    fill="#E4761B" stroke="#E4761B" stroke-linecap="round" stroke-linejoin="round" />
                <path d="M15.27 11.7277L12.9759 9.68066L12.8994 13.2807L16.2053 13.1336L15.27 11.7277Z" fill="#E4761B"
                    stroke="#E4761B" stroke-linecap="round" stroke-linejoin="round" />
                <path d="M8.91113 18.1516L10.8994 17.181L9.18172 15.8398L8.91113 18.1516Z" fill="#E4761B"
                    stroke="#E4761B" stroke-linecap="round" stroke-linejoin="round" />
                <path d="M13.0938 17.181L15.0879 18.1516L14.8114 15.8398L13.0938 17.181Z" fill="#E4761B"
                    stroke="#E4761B" stroke-linecap="round" stroke-linejoin="round" />
                <path d="M15.0888 18.1513L13.0947 17.1807L13.2536 18.4807L13.2359 19.0277L15.0888 18.1513Z"
                    fill="#D7C1B3" stroke="#D7C1B3" stroke-linecap="round" stroke-linejoin="round" />
                <path d="M8.91211 18.1513L10.7651 19.0277L10.7533 18.4807L10.9003 17.1807L8.91211 18.1513Z"
                    fill="#D7C1B3" stroke="#D7C1B3" stroke-linecap="round" stroke-linejoin="round" />
                <path d="M10.7946 14.9806L9.13574 14.4923L10.3063 13.957L10.7946 14.9806Z" fill="#233447"
                    stroke="#233447" stroke-linecap="round" stroke-linejoin="round" />
                <path d="M13.2002 14.9806L13.6884 13.957L14.8649 14.4923L13.2002 14.9806Z" fill="#233447"
                    stroke="#233447" stroke-linecap="round" stroke-linejoin="round" />
                <path d="M8.91136 18.1519L9.19372 15.7637L7.35254 15.8166L8.91136 18.1519Z" fill="#CD6116"
                    stroke="#CD6116" stroke-linecap="round" stroke-linejoin="round" />
                <path d="M14.8057 15.7637L15.088 18.1519L16.6468 15.8166L14.8057 15.7637Z" fill="#CD6116"
                    stroke="#CD6116" stroke-linecap="round" stroke-linejoin="round" />
                <path
                    d="M16.2053 13.1338L12.8994 13.2808L13.2053 14.9808L13.6935 13.9573L14.87 14.4926L16.2053 13.1338Z"
                    fill="#CD6116" stroke="#CD6116" stroke-linecap="round" stroke-linejoin="round" />
                <path
                    d="M9.13512 14.4926L10.3116 13.9573L10.7939 14.9808L11.1057 13.2808L7.79395 13.1338L9.13512 14.4926Z"
                    fill="#CD6116" stroke="#CD6116" stroke-linecap="round" stroke-linejoin="round" />
                <path d="M7.79395 13.1338L9.18218 15.8397L9.13512 14.4926L7.79395 13.1338Z" fill="#E4751F"
                    stroke="#E4751F" stroke-linecap="round" stroke-linejoin="round" />
                <path d="M14.8703 14.4926L14.8115 15.8397L16.2056 13.1338L14.8703 14.4926Z" fill="#E4751F"
                    stroke="#E4751F" stroke-linecap="round" stroke-linejoin="round" />
                <path d="M11.1057 13.2812L10.7939 14.9812L11.1822 16.9871L11.2704 14.346L11.1057 13.2812Z"
                    fill="#E4751F" stroke="#E4751F" stroke-linecap="round" stroke-linejoin="round" />
                <path d="M12.9 13.2812L12.7412 14.3401L12.8118 16.9871L13.2059 14.9812L12.9 13.2812Z" fill="#E4751F"
                    stroke="#E4751F" stroke-linecap="round" stroke-linejoin="round" />
                <path
                    d="M13.2056 14.9804L12.8115 16.9863L13.0939 17.1804L14.8115 15.8392L14.8703 14.4922L13.2056 14.9804Z"
                    fill="#F6851B" stroke="#F6851B" stroke-linecap="round" stroke-linejoin="round" />
                <path
                    d="M9.13574 14.4922L9.1828 15.8392L10.9004 17.1804L11.1828 16.9863L10.7946 14.9804L9.13574 14.4922Z"
                    fill="#F6851B" stroke="#F6851B" stroke-linecap="round" stroke-linejoin="round" />
                <path
                    d="M13.2356 19.0278L13.2533 18.4808L13.1062 18.3514H10.8886L10.7533 18.4808L10.7651 19.0278L8.91211 18.1514L9.55917 18.6808L10.8709 19.5925H13.1239L14.4415 18.6808L15.0886 18.1514L13.2356 19.0278Z"
                    fill="#C0AD9E" stroke="#C0AD9E" stroke-linecap="round" stroke-linejoin="round" />
                <path
                    d="M13.0941 17.1804L12.8118 16.9863H11.1823L10.9 17.1804L10.7529 18.4804L10.8882 18.351H13.1059L13.2529 18.4804L13.0941 17.1804Z"
                    fill="#161616" stroke="#161616" stroke-linecap="round" stroke-linejoin="round" />
                <path
                    d="M18.9996 10.3159L19.4996 7.91594L18.7526 5.68652L13.0938 9.88652L15.2702 11.7277L18.3467 12.6277L19.029 11.8336L18.7349 11.6218L19.2055 11.1924L18.8408 10.9101L19.3114 10.5512L18.9996 10.3159Z"
                    fill="#763D16" stroke="#763D16" stroke-linecap="round" stroke-linejoin="round" />
                <path
                    d="M4.5 7.91594L5 10.3159L4.68235 10.5512L5.15294 10.9101L4.79412 11.1924L5.26471 11.6218L4.97059 11.8336L5.64706 12.6277L8.72353 11.7277L10.9 9.88652L5.24118 5.68652L4.5 7.91594Z"
                    fill="#763D16" stroke="#763D16" stroke-linecap="round" stroke-linejoin="round" />
                <path
                    d="M18.3468 12.6275L15.2703 11.7275L16.2056 13.1334L14.8115 15.8393L16.6468 15.8158H19.3821L18.3468 12.6275Z"
                    fill="#F6851B" stroke="#F6851B" stroke-linecap="round" stroke-linejoin="round" />
                <path
                    d="M8.72305 11.7275L5.64658 12.6275L4.62305 15.8158H7.35246L9.18187 15.8393L7.79364 13.1334L8.72305 11.7275Z"
                    fill="#F6851B" stroke="#F6851B" stroke-linecap="round" stroke-linejoin="round" />
                <path
                    d="M12.8999 13.2805L13.094 9.8864L13.9882 7.46875H10.0176L10.8999 9.8864L11.1058 13.2805L11.1764 14.3511L11.1823 16.9864H12.8117L12.8235 14.3511L12.8999 13.2805Z"
                    fill="#F6851B" stroke="#F6851B" stroke-linecap="round" stroke-linejoin="round" />
            </g>
            <defs>
                <clipPath id="clip0_214_2750">
                    <rect y="0.624023" width="24" height="24" rx="12" fill="white" />
                </clipPath>
            </defs>
        </symbol>
        <symbol id="icon-wallet-connect_24" viewBox="0 0 24 25" fill="none" xmlns="http://www.w3.org/2000/svg">
            <g clip-path="url(#clip0_214_2759)">
                <path
                    d="M12 24.624C18.6274 24.624 24 19.2514 24 12.624C24 5.99661 18.6274 0.624023 12 0.624023C5.37258 0.624023 0 5.99661 0 12.624C0 19.2514 5.37258 24.624 12 24.624Z"
                    fill="url(#paint0_radial_214_2759)" />
                <path
                    d="M7.53516 9.89238C9.94922 7.53457 13.868 7.53457 16.282 9.89238L16.5727 10.1783C16.6945 10.2955 16.6945 10.4877 16.5727 10.6049L15.5789 11.5752C15.518 11.6361 15.4195 11.6361 15.3586 11.5752L14.9602 11.1861C13.2727 9.54082 10.5445 9.54082 8.85703 11.1861L8.43047 11.6033C8.36953 11.6643 8.27109 11.6643 8.21016 11.6033L7.21641 10.633C7.09453 10.5158 7.09453 10.3236 7.21641 10.2064L7.53516 9.89238ZM18.3398 11.8986L19.2258 12.7611C19.3477 12.8783 19.3477 13.0705 19.2258 13.1877L15.2367 17.083C15.1148 17.2002 14.918 17.2002 14.8008 17.083L11.9695 14.3174C11.9414 14.2893 11.8898 14.2893 11.8617 14.3174L9.03047 17.083C8.90859 17.2002 8.71172 17.2002 8.59453 17.083L4.59141 13.1877C4.46953 13.0705 4.46953 12.8783 4.59141 12.7611L5.47734 11.8986C5.59922 11.7814 5.79609 11.7814 5.91328 11.8986L8.74453 14.6643C8.77266 14.6924 8.82422 14.6924 8.85234 14.6643L11.6836 11.8986C11.8055 11.7814 12.0023 11.7814 12.1195 11.8986L14.9508 14.6643C14.9789 14.6924 15.0305 14.6924 15.0586 14.6643L17.8898 11.8986C18.0211 11.7814 18.218 11.7814 18.3398 11.8986Z"
                    fill="white" />
            </g>
            <defs>
                <radialGradient id="paint0_radial_214_2759" cx="0" cy="0" r="1" gradientUnits="userSpaceOnUse"
                    gradientTransform="translate(7.43866e-05 12.6244) scale(24)">
                    <stop stop-color="#5D9DF6" />
                    <stop offset="1" stop-color="#006FFF" />
                </radialGradient>
                <clipPath id="clip0_214_2759">
                    <rect width="24" height="24" fill="white" transform="translate(0 0.624023)" />
                </clipPath>
            </defs>
        </symbol>
        <!-- 30x30 -->
        <symbol id="icon-atom_30" xmlns="http://www.w3.org/2000/svg" viewBox="0 0 30 30" fill="none">
            <g>
                <path stroke="currentColor"
                    d="M26.0998 26.0199c-.5008.5099-1.2672.7788-2.3049.7587-1.0393-.0202-2.3034-.3316-3.7164-.9272-2.8233-1.1901-6.144-3.4734-9.2734-6.5803-3.1294-3.1068-5.4422-6.4163-6.6614-9.2397-.6102-1.413-.936-2.6799-.9691-3.7245-.0332-1.043.2246-1.8168.7254-2.3268.5008-.5099 1.2672-.7788 2.305-.7587 1.0392.0202 2.3033.3316 3.7163.9272 2.8233 1.1901 6.144 3.4734 9.2734 6.5803 3.1294 3.1068 5.4422 6.4163 6.6615 9.2397.6102 1.413.9359 2.6799.9691 3.7245.0331 1.043-.2247 1.8169-.7255 2.3268Z" />
                <path stroke="currentColor"
                    d="M3.9002 26.0199c.5008.5099 1.2672.7788 2.305.7587 1.0392-.0202 2.3033-.3316 3.7163-.9272 2.8233-1.1901 6.144-3.4734 9.2734-6.5803 3.1294-3.1068 5.4422-6.4163 6.6614-9.2397.6102-1.413.936-2.6799.9692-3.7245.0331-1.043-.2247-1.8168-.7255-2.3268-.5008-.5099-1.2672-.7788-2.3049-.7587-1.0393.0202-2.3034.3316-3.7164.9272-2.8233 1.1901-6.144 3.4734-9.2734 6.5803-3.1294 3.1068-5.4422 6.4163-6.6615 9.2397-.6102 1.413-.9359 2.6799-.969 3.7245-.0332 1.043.2246 1.8169.7254 2.3268Z" />
                <circle cx="15" cy="15" r="1" fill="currentColor" />
            </g>
        </symbol>
        <symbol id="icon-bank_30" xmlns="http://www.w3.org/2000/svg" viewBox="0 0 30 30" fill="none">
            <g stroke="currentColor" clip-path="url(#a)">
                <path
                    d="M28 12H2c-.5523 0-1-.4477-1-1V9.6445a1 1 0 0 1 .5007-.8664l12.9961-7.4904a1 1 0 0 1 .9985-.0001l13.0038 7.4906A1 1 0 0 1 29 9.6447V11c0 .5523-.4477 1-1 1ZM4 12h4v13H4V12ZM13 12h4v13h-4zM22 12h4v13h-4z" />
                <circle cx="15" cy="7.5" r="2.25" />
                <rect width="28" height="4" x="1" y="25" rx="1" />
            </g>
            <defs>
                <clipPath id="a">
                    <path fill="#fff" d="M0 0h30v30H0z" />
                </clipPath>
            </defs>
        </symbol>
        <symbol id="icon-chart-candles_30" xmlns="http://www.w3.org/2000/svg" viewBox="0 0 30 30" fill="none">
            <g stroke="currentColor">
                <path
                    d="M10 4.5H8c-.5523 0-1 .4477-1 1v14c0 .5523.4477 1 1 1h2m0-16h2c.5523 0 1 .4477 1 1v14c0 .5523-.4477 1-1 1h-2m0-16V1m0 19.5V24M20 13h-2c-.5523 0-1 .4477-1 1v9c0 .5523.4477 1 1 1h2m0-11h2c.5523 0 1 .4477 1 1v9c0 .5523-.4477 1-1 1h-2m0-11v-3m0 14v4" />
            </g>
        </symbol>
        <symbol id="icon-shield_30" xmlns="http://www.w3.org/2000/svg" viewBox="0 0 30 30" fill="none">
            <g stroke="currentColor" stroke-width="1.1333">
                <path
                    d="M25.8202 6.0214c-4.6295-.9515-6.8875-2.1508-9.9112-4.4924a1.163 1.163 0 0 0-1.373-.0362c-3.6523 2.5302-6.1864 3.62-10.5907 4.5019-.4978.0996-.8782.5072-.9058 1.014-.3558 6.5258 1.541 18.8181 11.8838 22.2544.2017.067.4251.0722.6292.0127 9.7739-2.8502 12.4766-16.1573 11.1206-22.4459-.09-.4173-.4347-.7226-.8529-.8085Z" />
                <path
                    d="M14.1986 9.8014c.4426-.4426 1.1602-.4426 1.6028 0l3.3972 3.3972c.4426.4426.4426 1.1602 0 1.6028l-3.3972 3.3972c-.4426.4426-1.1602.4426-1.6028 0l-3.3972-3.3972c-.4426-.4426-.4426-1.1602 0-1.6028l3.3972-3.3972Z" />
            </g>
        </symbol>
        <symbol id="icon-wallet_30" xmlns="http://www.w3.org/2000/svg" viewBox="0 0 30 30" fill="none">
            <g>
                <rect width="25.3" height="18.7" x="2" y="7.3" stroke="currentColor" rx="1.1" />
                <path stroke="currentColor"
                    d="M24 7.3V5.1c0-.6075-.4925-1.1-1.1-1.1H3.1C2.4925 4 2 4.4925 2 5.1v3.3M26.743 13.1143h-7.9286c-2.0829 0-3.7714 1.6885-3.7714 3.7714s1.6885 3.7714 3.7714 3.7714h8.4857" />
                <circle cx="18.8144" cy="16.8857" r=".9429" fill="currentColor" />
            </g>
        </symbol>
        <!-- 32x32 -->
        <symbol id="icon-arrows-cross_32" xmlns="http://www.w3.org/2000/svg" viewBox="0 0 32 32" fill="none">
            <path fill="currentColor"
                d="m16.3334 10.6797-7.3333-7.68h14.6666l-7.3333 7.68ZM11 15.7198l-8-7.04v14.08l8-7.04ZM21.6667 15.7197l8 7.04v-14.08l-8 7.04ZM16.3333 20.7603l7.3334 7.68H9l7.3333-7.68Z" />
        </symbol>
        <symbol id="icon-arows-diagonal_32" xmlns="http://www.w3.org/2000/svg" viewBox="0 0 32 32" fill="none">
            <path fill="currentColor" d="M15.975 15.9747 27 16.2093 16.2096 27l-.2346-11.0253Z" />
            <path fill="currentColor" d="M16.025 16.0253 5 15.7907 15.7904 5l.2346 11.0253Z" />
        </symbol>
        <symbol id="icon-arrows-outer_32" xmlns="http://www.w3.org/2000/svg" viewBox="0 0 32 32" fill="none">
            <path fill="currentColor" d="m16.3333 1 7.3334 7.68H9L16.3333 1ZM1 15.7198l8-7.04v14.08l-8-7.04Z" />
            <path fill="currentColor"
                d="m31.6667 15.7198-8-7.04v14.08l8-7.04ZM16.3333 30.4399l7.3334-7.68H9l7.3333 7.68Z" />
        </symbol>
        <symbol id="icon-arrows-triangle_32" xmlns="http://www.w3.org/2000/svg" viewBox="0 0 32 32" fill="none">
            <path fill="currentColor"
                d="m15.75 5 6.875 11H8.875L15.75 5ZM22.625 16 29.5 27H15.75l6.875-11ZM8.875 16l6.875 11H2l6.875-11Z" />
        </symbol>
        <symbol id="icon-arrows-two-top_32" xmlns="http://www.w3.org/2000/svg" viewBox="0 0 32 32" fill="none">
            <path fill="currentColor" d="m15.5 18 7.5 8H8l7.5-8ZM15.5 6 27 18H4L15.5 6Z" />
        </symbol>
        <symbol id="icon-coin-exchange_30" xmlns="http://www.w3.org/2000/svg" viewBox="0 0 32 32" fill="none">
            <g stroke="currentColor" stroke-width="1.0385">
                <circle cx="9" cy="9" r="9" transform="matrix(1 0 0 -1 1 28.8926)" />
                <path
                    d="M22.001 20.8657a8.9997 8.9997 0 0 0 8.9558-9.891 8.9999 8.9999 0 0 0-10.729-7.9326 8.9998 8.9998 0 0 0-6.9262 6.5171" />
                <path stroke-linejoin="round"
                    d="M2.8662 9.25V5.1157C2.8662 4.4995 3.3657 4 3.982 4h7.1343m0 0-2.25-3m2.25 3-2.25 3M29.1343 23.0974v4.1343c0 .6162-.4995 1.1157-1.1157 1.1157h-7.1343m0 0 2.25 3m-2.25-3 2.25-3" />
                <path
                    d="M9.1914 16.2385c.4055-.4056 1.0631-.4056 1.4686 0l2.9942 2.9942c.4056.4055.4056 1.063 0 1.4686L10.66 23.6955c-.4055.4055-1.063.4055-1.4686 0l-2.9942-2.9942c-.4055-.4056-.4055-1.0631 0-1.4686l2.9942-2.9942Z" />
            </g>
        </symbol>
        <symbol id="icon-return-of-investments_32" xmlns="http://www.w3.org/2000/svg" viewBox="0 0 32 32" fill="none">
            <g stroke-width="1.0189" clip-path="url(#a)">
                <path stroke="currentColor"
                    d="M17.5 12.4999c-.4695-.3913-1.2456-.708-2-.7446M13 19.9998c.7238.7238 1.644.9892 2.5.9147m0-9.1592c-.8522-.0414-1.6766.2747-2 1.2446-1.0988 3.2961 4 2.4999 4.5 4.9999.3191 1.5953-.9906 2.7834-2.5 2.9147m0-9.1592V10m0 10.9145V22.5" />
                <path stroke="currentColor"
                    d="M4 10.1325C6.209 5.894 10.6435 3 15.7539 3 23.0695 3 29 8.9305 29 16.2461c0 .693-.0532 1.3735-.1558 2.0378m0 0L32 15.5m-3.1558 2.7839L26 15.5" />
                <path stroke="currentColor"
                    d="M4 10.1325C6.209 5.894 10.6435 3 15.7539 3 23.0695 3 29 8.9305 29 16.2461c0 .693-.0532 1.3735-.1558 2.0378m0 0L32 15.5m-3.1558 2.7839L26 15.5" />
                <path stroke="currentColor"
                    d="M4 10.1325C6.209 5.894 10.6435 3 15.7539 3 23.0695 3 29 8.9305 29 16.2461c0 .693-.0532 1.3735-.1558 2.0378m0 0L32 15.5m-3.1558 2.7839L26 15.5M27.5296 22.5997c-2.3259 4.1756-6.839 6.9453-11.9475 6.8034-7.3127-.2032-13.0762-6.296-12.873-13.6088a13.3498 13.3498 0 0 1 .2122-2.0328m0 0-3.2318 2.6953m3.2318-2.6953 2.7658 2.8619" />
            </g>
            <defs>
                <clipPath id="a">
                    <path fill="#fff" d="M0 0h32v32H0z" />
                </clipPath>
            </defs>
        </symbol>
        <symbol id="icon-shopping-bag_32" xmlns="http://www.w3.org/2000/svg" viewBox="0 0 32 32" fill="none">
            <g>
                <mask id="a" width="32" height="32" x="0" y="0" maskUnits="userSpaceOnUse" style="mask-type:luminance">
                    <path fill="#fff" stroke="#fff" d="M31.5 31.5V.5H.5v31h31Z" />
                </mask>
                <g stroke="currentColor" stroke-miterlimit="10" mask="url(#a)">
                    <path
                        d="M16.6641 11.5195V5.4859c0-2.5119-2.0363-4.5482-4.5482-4.5482-2.512 0-4.5483 2.0363-4.5483 4.5482v6.0336" />
                    <path
                        d="m21.7044 17.663-.5509-9.4303H3.0783L2.1445 24.217c-.1272 2.177 1.604 4.0123 3.7848 4.0123h11.6523M19.7271 23.6721l2.3731 2.6841 4.2277-4.3792" />
                    <path
                        d="M29.861 24.2917c0 3.7394-3.0314 6.7708-6.7708 6.7708-3.7394 0-6.7709-3.0314-6.7709-6.7708 0-3.7395 3.0315-6.7708 6.7709-6.7708 3.7394 0 6.7708 3.0313 6.7708 6.7708Z" />
                </g>
            </g>
        </symbol>
        <symbol id="icon-tag_32" xmlns="http://www.w3.org/2000/svg" viewBox="0 0 32 32" fill="none">
            <path fill="currentColor"
                d="M29.3669 1.996a.6683.6683 0 0 0-.461.202l-2.8651 2.8672-.8634-.8633c-.48-.48-1.0322-.7455-1.5767-.7603-.3268-.009-.6301.0386-.9905.0886l-4.674.6495c-1.7196.239-2.5928.9756-3.7018 2.009L2.7372 16.9028a.7717.7717 0 0 0-.0137.0131c-.497.4906-.7124 1.1616-.7199 1.8218-.0075.6603.2008 1.3588.7551 1.8324l-.0385-.0359 8.7958 8.7957-.0359-.0385c.4735.5544 1.1721.7626 1.8323.7551.6602-.0074 1.3312-.2229 1.8219-.7198a.841.841 0 0 0 .013-.0137l.7897-.8477 3.1449 1.1717c.6832.2546 1.3828.2074 1.9803-.0736.5975-.281 1.1183-.7553 1.3583-1.4111l3.4514-10.3477c1.0278-1.1035 1.7604-1.977 1.9986-3.6907l.6494-4.674c.0501-.3604.0976-.6637.0887-.9905-.0148-.5444-.2803-1.0967-.7603-1.5767l-.8634-.8633 2.8672-2.8671c.4363-.4247.1234-1.1643-.4852-1.1464Zm-5.8027 2.781c.2616.0071.3144.0144.669.369l.8634.8634-1.533 1.5343c-.2618-.1264-.5531-.1995-.8608-.1995-1.0984 0-2.0038.9054-2.0038 2.0038s.9054 2.0038 2.0038 2.0038 2.0038-.9054 2.0038-2.0038c0-.3077-.0731-.599-.1995-.8608l1.5337-1.5336.8633.8633c.3547.3547.362.4075.3691.669.0043.157-.0256.4097-.0757.7701l-.6494 4.6741c-.2014 1.4491-.6355 1.8723-1.6635 2.9753L14.1829 28.3896c-.173.1748-.5299.3175-.8855.3215-.356.004-.6616-.1232-.8014-.2869a.6851.6851 0 0 0-.0358-.0385L3.6644 19.59a.673.673 0 0 0-.0385-.0359c-.1636-.1398-.2909-.4454-.2869-.8014.004-.3556.1467-.7125.3215-.8855l.0007-.0006L15.1447 7.1655c1.1031-1.028 1.5263-1.462 2.9754-1.6634l4.674-.6495c.3604-.05.6133-.0799.7701-.0756Zm-.8614 3.9026c.3767 0 .6677.2917.6677.6684s-.291.6677-.6677.6677-.6677-.291-.6677-.6677.291-.6684.6677-.6684Zm-11.359 7.3397c-.5984.0007-.8938.7277-.4656 1.1457l4.007 4.0076c.6308.6294 1.575-.3167.9442-.9462l-4.0076-4.005a.6681.6681 0 0 0-.478-.2021ZM9.34 18.0205c-.6015-.0017-.8984.7305-.4656 1.1483l4.0076 4.005c.6292.6719 1.6159-.3156.9436-.9442l-4.005-4.0044a.6674.6674 0 0 0-.4806-.2047Zm14.3396 2.1361-2.5137 7.5366c-.0845.231-.3501.5104-.6723.6619-.3221.1515-.6467.1471-.8483.0717l-2.7231-1.0185 6.7574-7.2517Z" />
        </symbol>
        <!-- 48 -->
        <symbol id="icon-logo-vertical" xmlns="http://www.w3.org/2000/svg" viewBox="0 0 48 39" fill="none">
            <g fill="curentColor">
                <path
                    d="M37.3283 9.473c0 1.354-1.3185 2.5082-3.8234 3.3443-.1321.0422-.2643.0872-.4017.1295h-.0105c-.5893.1801-1.0887.5996-1.3899 1.1682a10.2742 10.2742 0 0 1-.3012.5292c-1.588 2.5871-4.3308 4.2987-7.4434 4.2987-2.5393 0-4.8354-1.1401-6.4552-2.9643-.2986-.3378-1.0014-1.2161-1.6461-1.5342.6843.2364 2.7189.6249 4.3069.7263-1.0384-.0451-1.0965.3068-.6764.6615 1.2234 1.0303 2.7956 1.5905 4.4734 1.5905 2.098 0 3.9979-.929 5.3534-2.4209.4254-.473.066-1.2499-.5417-1.1739h-.0264c-1.5061.1886-3.1259.2843-4.7905.2843-1.6647 0-3.2844-.0957-4.7906-.2815-.5443-.0676-1.0754-.1436-1.5853-.2337a25.9803 25.9803 0 0 1-1.7889-.3772 19.9849 19.9849 0 0 1-.9803-.273 14.1437 14.1437 0 0 1-.4016-.1295c-2.5049-.8361-3.8235-1.9903-3.8235-3.3443 0-1.3541 1.3186-2.5083 3.8235-3.3444-2.4944 1.1486-2.6661 2.6856-2.394 3.3444.2326.5573.6738 1.0359 2.0003 1.5876.3673.1521.7874.3041 1.2551.4448.4756.1464 1.0041.2844 1.5854.4082.4148.0901.8587.1746 1.3264.2477 1.6171.259 3.5433.4223 5.7735.4223 2.2301 0 4.1563-.1633 5.7734-.4223a22.9773 22.9773 0 0 0 1.3265-.2477c.5786-.1238 1.1071-.2618 1.5853-.4082.4677-.1435.8879-.2927 1.2551-.4448 1.3265-.5517 1.847-1.1795 2.0003-1.5877.3144-.8276.0079-2.1-2.394-3.3443 2.505.8361 3.8235 1.9875 3.8235 3.3444h.0026Z" />
                <path
                    d="M33.7294 9.8133c-.3224.1549-.4228.1887-.9037.3379-.428.1323-1.1071.3349-1.4823.4278-.2061.0507-.8033.183-.8799.1999.5549-.1914.9248-.5292.9512-1.3062.0132-.3744-.0238-.746-.0713-1.1063-.0581-.4589-.1586-.9065-.288-1.3372a8.1701 8.1701 0 0 0-.724-1.6806 7.8255 7.8255 0 0 0-1.02-1.4047c-1.3555-1.492-3.2553-2.421-5.3559-2.421-2.1007 0-4.0005.929-5.356 2.421a7.825 7.825 0 0 0-1.0199 1.4047 8.0311 8.0311 0 0 0-.724 1.6806 7.9221 7.9221 0 0 0-.288 1.3372 8.4718 8.4718 0 0 0-.0714 1.1063c0 .3744.0238.7432.0714 1.1063-.5628-.1351-1.057-.2815-1.4824-.4278a9.673 9.673 0 0 1 0-1.357c.0317-.4616.0925-.9148.185-1.354a9.7056 9.7056 0 0 1 .5179-1.7115 9.4936 9.4936 0 0 1 .7213-1.4273C18.1001 1.7144 20.8428 0 23.9581 0c3.1153 0 5.8554 1.7144 7.4434 4.3014.2775.4504.5206.929.7214 1.4273a9.7225 9.7225 0 0 1 .5179 1.7115c.0924.442.1559.8924.1849 1.354.0661 1.0501.3964 1.143.9037 1.0191Z" />
                <path
                    d="M14.1846 9.8133c.3224.1549.4228.1887.9037.3379.428.1323 1.1071.3349 1.4823.4278.2061.0507.8033.183.8799.1999-.5549-.1914-.9248-.5292-.9512-1.3062-.0132-.3744.0238-.746.0713-1.1063.0581-.4589.1586-.9065.288-1.3372a8.1701 8.1701 0 0 1 .724-1.6806 7.8255 7.8255 0 0 1 1.02-1.4047c1.3555-1.492 3.2553-2.421 5.3559-2.421 2.1007 0 4.0005.929 5.356 2.421a7.825 7.825 0 0 1 1.0199 1.4047 8.0259 8.0259 0 0 1 .724 1.6806c.1321.4307.2299.8755.288 1.3372.0476.3603.0714.732.0714 1.1063 0 .3744-.0238.7432-.0714 1.1063.5628-.1351 1.057-.2815 1.4824-.4278a9.673 9.673 0 0 0 0-1.357c-.0317-.4616-.0925-.9148-.185-1.354a9.7056 9.7056 0 0 0-.5179-1.7115 9.4936 9.4936 0 0 0-.7213-1.4273C29.8139 1.7144 27.0708 0 23.9581 0c-3.1126 0-5.8549 1.7144-7.443 4.3014a9.4936 9.4936 0 0 0-.7213 1.4273 9.7056 9.7056 0 0 0-.5179 1.7115 9.5189 9.5189 0 0 0-.185 1.354c-.066 1.0501-.3963 1.143-.9037 1.0191h-.0026Z" />
                <g clip-path="url(#a)">
                    <path
                        d="M4.6448 36.2117c-.6258 0-1.2164-.1178-1.7677-.3533-.5532-.2356-1.0358-.5638-1.4478-.9828-.414-.419-.7377-.9075-.9731-1.4636-.2355-.556-.3532-1.1566-.3532-1.7976s.1177-1.2396.3532-1.7918c.2354-.5522.561-1.0388.979-1.4578.4178-.4189.9063-.7453 1.4674-.977.5612-.2317 1.1733-.3475 1.8344-.3475.722 0 1.387.1371 1.9973.4113.6081.2741 1.1182.668 1.5263 1.1816l-.8475.8341c-.2865-.4112-.6651-.726-1.136-.9441-.4709-.2182-.983-.3283-1.54-.3283-.6612 0-1.2459.1448-1.756.4364-.5081.2915-.9044.6932-1.187 1.2068-.2824.5136-.4237 1.1044-.4237 1.7725 0 .668.1432 1.2724.4297 1.786.2864.5136.6749.9171 1.1614 1.2068.4865.2915 1.0398.4363 1.6578.4363.618 0 1.1987-.1197 1.6637-.3591.465-.2394.822-.5928 1.0692-1.06.2472-.4673.3767-1.0388.3845-1.7146l.7436.5387h-3.916v-1.118h4.4379v.1796c0 1.0369-.1844 1.9038-.5552 2.6008-.3708.6971-.8829 1.2222-1.5401 1.5737-.6573.3514-1.4126.5271-2.264.5271v.0038h.002ZM10.4268 36.0838v-9.1695h1.1751v9.1695h-1.1751ZM16.1418 36.2112c-.6003 0-1.1437-.1409-1.6303-.4247-.4865-.2819-.875-.6662-1.1614-1.1489-.2865-.4827-.4297-1.0253-.4297-1.6238 0-.5986.1432-1.1237.4297-1.5988.2864-.4749.6749-.8534 1.1614-1.1372.4866-.2819 1.03-.4248 1.6303-.4248.6004 0 1.1595.139 1.65.4171.4905.278.8809.6565 1.1673 1.1372.2865.4789.4297 1.0137.4297 1.6046 0 .5908-.1432 1.1411-.4297 1.6238-.2864.4846-.6768.8669-1.1673 1.1488-.4924.2819-1.0418.4248-1.65.4248v.0019Zm0-1.116c.4003 0 .7515-.0907 1.0575-.2703.3041-.1796.5434-.4267.7181-.7395.1746-.3128.2609-.67.2609-1.0716 0-.4016-.0903-.7453-.2668-1.0523-.1786-.3089-.4179-.5503-.7181-.726-.3001-.1757-.6513-.2626-1.0496-.2626-.3983 0-.7259.0888-1.03.2626-.3041.1757-.5434.4171-.718.726-.1747.3089-.261.6603-.261 1.0523s.0863.7607.261 1.0716c.1746.3128.4139.558.718.7395.3041.1796.6474.2703 1.03.2703h-.002ZM20.6968 36.0838v-9.1695h1.1752v4.5587l-.2217 1.4771.2217 1.4906v1.6431h-1.1752Zm3.2626.1275c-.4689 0-.8946-.0966-1.2732-.2897-.3787-.193-.6808-.4595-.9064-.8032-.2257-.3417-.3532-.7318-.3787-1.1681V32.114c.0255-.446.155-.836.3846-1.1758.2295-.3379.5355-.6044.9142-.7956.3786-.193.7985-.2896 1.2595-.2896.565 0 1.0771.141 1.5342.4248.4572.2819.8162.6642 1.0771 1.1431.261.4788.3924 1.0195.3924 1.618 0 .5986-.1314 1.1392-.3924 1.618-.2609.4789-.6199.8593-1.0771 1.1373-.4571.278-.9672.4171-1.5342.4171Zm-.1962-1.091c.3924 0 .7357-.0888 1.03-.2703.2963-.1796.5278-.4267.6985-.7376.1707-.3128.255-.6738.255-1.0851 0-.4112-.0843-.7588-.255-1.0716-.1687-.3128-.4022-.558-.6985-.7376-.2962-.1795-.6395-.2703-1.03-.2703-.3904 0-.7219.0888-1.0182.2703-.2962.1796-.5258.4267-.6925.7376-.1648.3128-.2472.6739-.2472 1.0851 0 .4113.0804.7608.2413 1.0716.1609.3128.3923.558.6925.7376.3002.1796.6416.2703 1.0241.2703ZM30.9266 36.2112c-.5748 0-1.0888-.139-1.5459-.417-.4572-.2781-.8182-.6565-1.083-1.1373-.2649-.4788-.3983-1.0195-.3983-1.618 0-.5986.1334-1.1392.3983-1.6181.2648-.4788.6258-.8611 1.083-1.143.4571-.2819.9731-.4248 1.5459-.4248.4709 0 .8887.0966 1.2595.2896.3689.1931.667.4576.8947.7955.2255.3379.3532.7299.3786 1.1759v1.8362c-.0254.4364-.1509.8264-.3727 1.1682-.2217.3417-.5198.6101-.8947.8032-.3745.1931-.7963.2896-1.2654.2896Zm.1962-1.0909c.5826 0 1.0536-.195 1.4087-.585.357-.39.5355-.8882.5355-1.4964 0-.4113-.0823-.7743-.2471-1.0909-.1647-.3167-.3942-.5638-.6849-.7376-.2921-.1757-.6335-.2626-1.024-.2626-.3904 0-.7376.0888-1.0378.2703-.3001.1796-.5356.4267-.7043.7376-.1707.3128-.2551.67-.2551 1.0716 0 .4016.0844.7723.2551 1.0851.1687.3128.4061.5581.7102.7376.3041.1796.6533.2703 1.0437.2703Zm1.8659.9635v-1.6431l.2214-1.4906-.2214-1.4771v-1.4906h1.1869v6.1014h-1.1869ZM35.8862 36.0838v-9.1695h1.175v9.1695h-1.175ZM46.3315 36.0841l-6.6294-8.9127h1.4619l6.6172 8.9127h-1.4497Z" />
                    <path
                        d="M34.356 38.9766c9.6132-4.329 16.1524-15.6552 5.6228-13.5506 12.1696-3.8366 7.4963 9.4572-5.6228 13.5506Z" />
                </g>
            </g>
            <defs>
                <clipPath id="a">
                    <path fill="#fff" d="M0 24.5144h47.9143v14.4857H0z" />
                </clipPath>
            </defs>
        </symbol>
    </defs>
</svg>