<svg xmlns="http://www.w3.org/2000/svg" width="91" height="103" viewBox="0 0 91 103" fill="none">
    <path fill-rule="evenodd" clip-rule="evenodd"
        d="M42.1587 0.893708C44.2226 -0.297903 46.7654 -0.297902 48.8294 0.893708L87.6527 23.3083C89.7166 24.5 90.988 26.7021 90.988 29.0854V73.9146C90.988 76.2979 89.7166 78.5 87.6527 79.6917L87.5723 79.738C84.1738 78.2033 80.402 77.3491 76.4307 77.3491C62.3783 77.3491 50.8241 88.0448 49.4647 101.74L48.8294 102.106C46.8757 103.234 44.493 103.294 42.4935 102.287C41.0027 88.7299 29.5117 78.1829 15.5573 78.1829C11.6834 78.1829 7.99938 78.9957 4.66643 80.4601L3.33536 79.6917C1.27143 78.5 0 76.2979 0 73.9146V29.0854C0 26.7021 1.27143 24.5 3.33536 23.3083L42.1587 0.893708Z"
        fill="url(#paint0_linear_220_2084)" />
    <defs>
        <linearGradient id="paint0_linear_220_2084" x1="45.4201" y1="120.657" x2="57.1066" y2="4.49523"
            gradientUnits="userSpaceOnUse">
            <stop stop-color="#0C0221" stop-opacity="0" />
            <stop offset="1" stop-color="#0C0221" />
        </linearGradient>
    </defs>
</svg>