<svg xmlns="http://www.w3.org/2000/svg" width="201" height="201" viewBox="0 0 201 201" fill="none">
    <path fill-rule="evenodd" clip-rule="evenodd"
        d="M28.5 74C51.4198 74 70 55.4198 70 32.5C70 26.4159 68.6908 20.6376 66.3386 15.4314C64.4638 11.2816 65.8688 6.01545 70.2113 4.6446C79.7693 1.62726 89.9446 0 100.5 0C112.26 0 123.549 2.02 134.038 5.73196C138.228 7.21489 139.518 12.3357 137.683 16.3841C135.317 21.6026 134 27.3975 134 33.5C134 56.4198 152.58 75 175.5 75C179.95 75 184.236 74.2997 188.254 73.0034C192.487 71.6377 197.434 73.4986 198.433 77.8327C200.113 85.1175 201 92.7051 201 100.5C201 110.819 199.445 120.774 196.556 130.145C195.346 134.07 190.864 135.717 186.914 134.589C183.287 133.554 179.458 133 175.5 133C152.58 133 134 151.58 134 174.5C134 178.654 134.61 182.665 135.746 186.449C136.927 190.383 135.341 194.887 131.432 196.15C121.688 199.299 111.293 201 100.5 201C91.5773 201 82.9262 199.837 74.6899 197.655C70.7262 196.605 68.8993 192.205 69.856 188.218C70.6039 185.101 71 181.847 71 178.5C71 174.296 70.375 170.239 69.2129 166.415C65.4512 147.365 48.6532 133 28.5 133C23.7057 133 19.1013 133.813 14.8171 135.309C10.7975 136.712 6.0447 135.173 4.74901 131.117C1.66481 121.464 0 111.176 0 100.5C0 91.9563 1.06611 83.6616 3.07256 75.7416C4.19131 71.3257 9.37094 69.6205 13.6235 71.2539C18.2416 73.0278 23.2573 74 28.5 74Z"
        fill="#18102A" />
</svg>