<svg xmlns="http://www.w3.org/2000/svg" width="110" height="124" viewBox="0 0 110 124" fill="none">
    <path fill-rule="evenodd" clip-rule="evenodd"
        d="M50.5596 1.0718C53.0348 -0.357266 56.0844 -0.357265 58.5596 1.0718L105.119 27.953C107.594 29.3821 109.119 32.0231 109.119 34.8812V35.1585C100.345 40.9781 94.5596 50.9447 94.5596 62.2625C94.5596 73.567 100.331 83.5234 109.088 89.3459C108.861 91.9292 107.39 94.2606 105.119 95.5718L58.5596 122.453C56.0844 123.882 53.0348 123.882 50.5596 122.453L4 95.5718C1.52479 94.1427 0 91.5017 0 88.6436V86.2391C6.48984 80.2972 10.5596 71.7551 10.5596 62.2625C10.5596 52.7698 6.48984 44.2277 0 38.2858V34.8812C0 32.0231 1.52479 29.3821 4 27.953L50.5596 1.0718Z"
        fill="url(#paint0_linear_220_58)" />
    <defs>
        <linearGradient id="paint0_linear_220_58" x1="54.471" y1="144.7" x2="68.4862" y2="5.39099"
            gradientUnits="userSpaceOnUse">
            <stop stop-color="#0C0221" stop-opacity="0" />
            <stop offset="1" stop-color="#0C0221" />
        </linearGradient>
    </defs>
</svg>