<svg xmlns="http://www.w3.org/2000/svg" width="454" height="263" viewBox="0 0 454 263" fill="none">
    <g filter="url(#filter0_f_220_2073)">
        <path
            d="M920.195 151.134C880.056 167.968 825.457 192.772 754.899 228.009C582.069 314.322 529.108 396.464 522.771 456.033C535.119 467.501 542.649 477.94 547.054 488.797C625.208 590.003 512.479 552.796 522.771 456.033C484.594 420.576 400.353 375.282 219.952 277.387C-18.7977 147.83 419.399 -60.3046 -28.4101 26.1015C-476.22 112.508 315.406 -155.348 317.5 26.1012C319.594 207.55 67.5899 168.139 535.09 187.139C703.723 193.992 838.315 171.747 920.195 151.134C1045.01 98.787 1030 123.492 920.195 151.134Z"
            fill="url(#paint0_radial_220_2073)" />
    </g>
    <defs>
        <filter id="filter0_f_220_2073" x="-197.303" y="-70.148" width="1237.27" height="650.768"
            filterUnits="userSpaceOnUse" color-interpolation-filters="sRGB">
            <feFlood flood-opacity="0" result="BackgroundImageFix" />
            <feBlend mode="normal" in="SourceGraphic" in2="BackgroundImageFix" result="shape" />
            <feGaussianBlur stdDeviation="15.85" result="effect1_foregroundBlur_220_2073" />
        </filter>
        <radialGradient id="paint0_radial_220_2073" cx="0" cy="0" r="1" gradientUnits="userSpaceOnUse"
            gradientTransform="translate(552.001 1188) rotate(-108.4) scale(1281.51 1733.8)">
            <stop stop-color="white" />
            <stop offset="0.142275" stop-color="#9DF3FF" />
            <stop offset="0.332205" stop-color="#19B3F5" />
            <stop offset="1" stop-color="#18102A" />
        </radialGradient>
    </defs>
</svg>